<?xml version="1.0" encoding="UTF-8"?>
<svg version="1.1" xmlns="http://www.w3.org/2000/svg" width="325" height="298">
<path d="M0 0 C2.06475583 0.0031427 4.12804884 -0.02031752 6.19262695 -0.0456543 C36.06759029 -0.18807286 62.78381013 12.36543262 84.40161133 32.53051758 C86.27629853 34.36451081 86.27629853 34.36451081 88.39770508 35.31567383 C88.98551758 36.33661133 88.98551758 36.33661133 89.58520508 37.37817383 C91.13418531 39.88859007 92.59777531 41.67918683 94.58520508 43.81567383 C114.1360529 65.72753505 120.47442499 95.83615028 119.39770508 124.31567383 C118.7641925 134.33380109 116.48543869 143.79137786 113.39770508 153.31567383 C113.08833008 154.28375977 112.77895508 155.2518457 112.46020508 156.24926758 C102.52929894 185.42130435 79.19978801 207.31046571 52.58520508 221.56567383 C25.42975925 234.63513973 -7.25615191 235.4367967 -35.49926758 225.65893555 C-43.53353951 222.79027676 -50.9398483 219.23382727 -58.21166992 214.73364258 C-60.61611958 213.19329516 -60.61611958 213.19329516 -63.60229492 212.31567383 C-64.73719687 211.21516285 -65.86496062 210.10643718 -66.95776367 208.96411133 C-69.05281997 206.86407865 -71.26064039 204.91178089 -73.47729492 202.94067383 C-75.18669834 201.40019376 -76.89510536 199.85860698 -78.60229492 198.31567383 C-79.51881836 197.50163086 -79.51881836 197.50163086 -80.45385742 196.67114258 C-95.0936514 182.96801788 -104.66404424 163.48770588 -109.60229492 144.31567383 C-109.92069336 143.16325195 -110.2390918 142.01083008 -110.56713867 140.82348633 C-117.15758083 113.55059667 -112.18640622 81.28002034 -97.60229492 57.31567383 C-92.01396387 48.65526294 -85.72664641 40.76962165 -78.60229492 33.31567383 C-77.9190918 32.55770508 -77.23588867 31.79973633 -76.53198242 31.01879883 C-62.93134637 16.46461265 -42.70306487 7.11120607 -23.60229492 2.31567383 C-22.89322998 2.12948486 -22.18416504 1.9432959 -21.45361328 1.75146484 C-14.34569711 0.08888518 -7.26576817 -0.02301722 0 0 Z M-62.60229492 33.31567383 C-63.58198242 34.17547852 -64.56166992 35.0352832 -65.57104492 35.92114258 C-76.39626617 45.26870837 -76.39626617 45.26870837 -83.60229492 57.31567383 C-82.94447021 57.38036865 -82.28664551 57.44506348 -81.60888672 57.51171875 C-54.30682731 60.2777766 -30.29272501 66.05980922 -7.66870117 82.24926758 C-4.99280121 84.05251736 -2.63903442 85.27693863 0.39770508 86.31567383 C0.39770508 86.97567383 0.39770508 87.63567383 0.39770508 88.31567383 C2.07730345 90.0923908 2.07730345 90.0923908 4.21020508 91.87817383 C4.91790039 92.49821289 5.6255957 93.11825195 6.35473633 93.75708008 C8.41043976 95.49992137 8.41043976 95.49992137 11.39770508 96.31567383 C12.52270508 98.25317383 12.52270508 98.25317383 13.39770508 100.31567383 C13.72770508 100.97567383 14.05770508 101.63567383 14.39770508 102.31567383 C15.05770508 102.31567383 15.71770508 102.31567383 16.39770508 102.31567383 C16.63231445 102.84676758 16.86692383 103.37786133 17.10864258 103.92504883 C18.7847342 107.03343693 20.88222434 109.76967086 23.02270508 112.56567383 C23.44293945 113.1199707 23.86317383 113.67426758 24.29614258 114.24536133 C25.32709226 115.60434046 26.36200419 116.96031218 27.39770508 118.31567383 C30.40973664 115.56885259 32.07323248 113.27441582 33.58520508 109.50317383 C35.70750564 104.61465488 38.16591245 100.06819505 40.89770508 95.50317383 C41.26532959 94.88144287 41.6329541 94.25971191 42.01171875 93.61914062 C43.87915984 90.53755331 45.82685361 87.72535893 48.17895508 84.99145508 C50.61047287 82.63841413 50.61047287 82.63841413 50.39770508 80.31567383 C51.01645508 80.08879883 51.63520508 79.86192383 52.27270508 79.62817383 C54.62491139 78.46635411 54.62491139 78.46635411 55.39770508 75.81567383 C56.39770508 73.31567383 56.39770508 73.31567383 58.15551758 72.44458008 C61.05010423 70.98720108 62.94882815 69.00994793 65.27270508 66.75317383 C71.44331012 61.01676562 78.20606626 56.66215335 85.39770508 52.31567383 C84.80071377 48.98431492 83.67758227 47.10291716 81.46020508 44.56567383 C80.93555664 43.95208008 80.4109082 43.33848633 79.87036133 42.70629883 C78.49292892 41.08681819 78.49292892 41.08681819 76.39770508 41.31567383 C76.39770508 40.65567383 76.39770508 39.99567383 76.39770508 39.31567383 C74.35398019 37.49264704 72.31019247 35.80060213 70.14770508 34.12817383 C69.5130835 33.63494629 68.87846191 33.14171875 68.22460938 32.63354492 C62.56942481 28.31468096 56.71035921 24.61036044 50.39770508 21.31567383 C49.51856445 20.85547852 48.63942383 20.3952832 47.73364258 19.92114258 C13.26697765 3.09449643 -33.48712363 7.64047997 -62.60229492 33.31567383 Z M91.39770508 60.31567383 C89.41770508 61.30567383 89.41770508 61.30567383 87.39770508 62.31567383 C87.39770508 62.97567383 87.39770508 63.63567383 87.39770508 64.31567383 C86.57399414 64.43168945 86.57399414 64.43168945 85.73364258 64.55004883 C82.54926629 65.59375745 80.5753121 67.4063256 78.02270508 69.56567383 C77.04946289 70.38680664 76.0762207 71.20793945 75.07348633 72.05395508 C74.19047852 72.80032227 73.3074707 73.54668945 72.39770508 74.31567383 C71.33587076 75.1290436 70.27353598 75.94176154 69.21020508 76.75317383 C65.81479954 79.84676554 63.11915483 83.27506964 60.32739258 86.91333008 C58.39770508 89.31567383 58.39770508 89.31567383 56.49145508 91.10083008 C53.46315385 94.3042756 51.30347438 97.93186848 49.02270508 101.69067383 C48.53809814 102.48707275 48.05349121 103.28347168 47.55419922 104.10400391 C43.48586531 110.92181997 40.0930568 117.83067272 37.39770508 125.31567383 C36.74608398 127.02303711 36.74608398 127.02303711 36.08129883 128.76489258 C35.21609127 133.25902782 36.13916057 135.30758801 38.02270508 139.44067383 C38.59706484 140.75792691 39.16731687 142.076978 39.73364258 143.39770508 C40.01820313 144.05335449 40.30276367 144.70900391 40.59594727 145.38452148 C43.90946418 153.36561734 45.94006421 161.81916194 47.39770508 170.31567383 C52.19235071 170.31567383 52.96040746 169.4767126 56.39770508 166.31567383 C70.34621144 150.91167115 82.8948307 130.60778428 82.39770508 109.06567383 C82.39770508 105.04169353 82.90386557 102.05027259 84.39770508 98.31567383 C86.97568696 96.40297759 88.15526053 96.31567383 91.39770508 96.31567383 C94.75635494 120.60504019 86.51361645 142.7790224 72.58911133 162.45239258 C70.07996955 165.7308256 67.38560821 168.4809965 64.39770508 171.31567383 C64.39770508 171.97567383 64.39770508 172.63567383 64.39770508 173.31567383 C63.80989258 173.58508789 63.22208008 173.85450195 62.61645508 174.13208008 C60.40408481 175.31227056 58.76255335 176.58752526 56.89770508 178.25317383 C55.07260459 179.87502449 53.43293188 181.29490777 51.32446289 182.5378418 C49.14277066 184.20158853 49.14277066 184.20158853 48.85180664 187.04296875 C48.83085937 188.11651611 48.80991211 189.19006348 48.78833008 190.29614258 C48.75610352 191.45952148 48.72387695 192.62290039 48.69067383 193.8215332 C48.6694043 195.64394531 48.6694043 195.64394531 48.64770508 197.50317383 C48.60323242 199.34298828 48.60323242 199.34298828 48.55786133 201.2199707 C48.48707609 204.25193836 48.43442094 207.28313316 48.39770508 210.31567383 C52.50732284 208.99241808 56.06564114 207.54213865 59.77270508 205.31567383 C60.64668945 204.80004883 61.52067383 204.28442383 62.42114258 203.75317383 C63.0734082 203.27879883 63.72567383 202.80442383 64.39770508 202.31567383 C64.39770508 201.65567383 64.39770508 200.99567383 64.39770508 200.31567383 C65.11958008 200.06817383 65.84145508 199.82067383 66.58520508 199.56567383 C71.73837806 197.27537473 75.60253836 193.42710444 79.39770508 189.31567383 C79.72770508 188.32567383 80.05770508 187.33567383 80.39770508 186.31567383 C81.05770508 186.31567383 81.71770508 186.31567383 82.39770508 186.31567383 C102.18207088 163.13399268 110.13881489 135.51118263 108.39770508 105.31567383 C106.965751 90.53638502 103.02354327 70.52803625 91.39770508 60.31567383 Z M-90.60229492 68.31567383 C-102.62809973 89.7693135 -106.0007531 118.9552582 -99.43408203 142.78710938 C-98.86558208 144.6433822 -98.23455648 146.48013949 -97.60229492 148.31567383 C-96.98354492 150.18932617 -96.98354492 150.18932617 -96.35229492 152.10083008 C-87.76356278 176.45230108 -70.17927123 196.10898329 -47.60229492 208.31567383 C-46.76311523 208.80422852 -45.92393555 209.2927832 -45.05932617 209.79614258 C-24.26696858 221.20407926 0.76355707 223.99767089 23.89770508 219.37817383 C25.05270508 219.02754883 26.20770508 218.67692383 27.39770508 218.31567383 C27.72770508 217.65567383 28.05770508 216.99567383 28.39770508 216.31567383 C27.64432861 215.89439209 27.64432861 215.89439209 26.87573242 215.46459961 C12.61963268 207.45427687 -0.83754402 199.29584936 -12.71166992 187.93286133 C-14.44094824 186.09900209 -14.44094824 186.09900209 -16.60229492 186.31567383 C-16.60229492 185.65567383 -16.60229492 184.99567383 -16.60229492 184.31567383 C-19.65787915 181.29049473 -19.65787915 181.29049473 -23.60229492 180.31567383 C-23.60229492 179.65567383 -23.60229492 178.99567383 -23.60229492 178.31567383 C-24.26229492 178.31567383 -24.92229492 178.31567383 -25.60229492 178.31567383 C-25.98901367 177.4571582 -25.98901367 177.4571582 -26.38354492 176.58129883 C-27.71595434 174.10438388 -29.2528561 172.18155722 -31.10229492 170.06567383 C-31.71073242 169.35926758 -32.31916992 168.65286133 -32.94604492 167.92504883 C-34.4564586 166.08337878 -34.4564586 166.08337878 -36.60229492 166.31567383 C-36.86655273 165.74977539 -37.13081055 165.18387695 -37.40307617 164.60083008 C-38.68981122 162.14890824 -40.17212834 160.00013862 -41.78979492 157.75317383 C-45.58760649 152.38876499 -49.12719649 146.8929923 -52.60229492 141.31567383 C-53.05217773 140.6427832 -53.50206055 139.96989258 -53.96557617 139.27661133 C-55.94876553 136.18256332 -56.6230885 134.60158552 -56.35229492 130.87817383 C-56.10479492 130.03254883 -55.85729492 129.18692383 -55.60229492 128.31567383 C-53.29229492 127.98567383 -50.98229492 127.65567383 -48.60229492 127.31567383 C-48.60229492 127.97567383 -48.60229492 128.63567383 -48.60229492 129.31567383 C-47.94229492 129.31567383 -47.28229492 129.31567383 -46.60229492 129.31567383 C-46.48370117 129.88930664 -46.36510742 130.46293945 -46.24291992 131.05395508 C-43.35103815 141.26370841 -34.46660192 150.2418023 -28.04101562 158.4597168 C-27.00542075 159.79563945 -26.01103591 161.16387708 -25.04443359 162.55053711 C-24.56852783 163.13303223 -24.09262207 163.71552734 -23.60229492 164.31567383 C-22.94229492 164.31567383 -22.28229492 164.31567383 -21.60229492 164.31567383 C-21.37541992 164.87254883 -21.14854492 165.42942383 -20.91479492 166.00317383 C-17.66838224 171.72304379 -12.00179387 175.46864881 -6.90698242 179.44848633 C-4.60229492 181.31567383 -4.60229492 181.31567383 -2.92260742 183.05786133 C-1.66487379 184.54559454 -1.66487379 184.54559454 0.39770508 184.31567383 C0.39770508 184.97567383 0.39770508 185.63567383 0.39770508 186.31567383 C1.84483107 187.63471611 1.84483107 187.63471611 3.76489258 188.92504883 C4.48104736 189.4297168 5.19720215 189.93438477 5.93505859 190.4543457 C6.70648193 190.98608398 7.47790527 191.51782227 8.27270508 192.06567383 C9.05121826 192.60772461 9.82973145 193.14977539 10.63183594 193.70825195 C23.11557577 203.37581184 23.11557577 203.37581184 37.39770508 208.31567383 C42.96675093 197.17758212 38.69346962 173.85786197 35.39770508 162.31567383 C35.08446289 161.10008789 34.7712207 159.88450195 34.44848633 158.63208008 C32.64444767 151.89367482 30.6106271 145.51064922 27.39770508 139.31567383 C27.10798828 138.75686523 26.81827148 138.19805664 26.51977539 137.62231445 C22.39432817 129.76238046 17.89342652 122.29432348 12.64770508 115.12817383 C11.9766272 114.21140869 11.9766272 114.21140869 11.29199219 113.27612305 C-6.3982486 89.70882397 -35.10971941 74.3055116 -63.72729492 69.06567383 C-72.62246642 67.80598495 -81.64211113 68.15487292 -90.60229492 68.31567383 Z " fill="#FFFFFF" transform="translate(158.602294921875,32.684326171875)"/>
<path d="M0 0 C2.48499569 1.03913243 2.48499569 1.03913243 4.875 1.54296875 C10.49673062 2.92330439 14.06369452 4.44053578 17.5625 9.171875 C19.13320069 12.04331221 19.24115171 13.81033695 18.5625 17 C15.78034961 22.25517295 12.73527878 24.41361061 7.5625 27 C-2.28351086 28.18120206 -12.10609815 28.07600975 -22 27.75 C-23.33918693 27.7223745 -24.67837968 27.69502985 -26.01757812 27.66796875 C-27.29181641 27.62800781 -28.56605469 27.58804688 -29.87890625 27.546875 C-31.02045166 27.51432617 -32.16199707 27.48177734 -33.33813477 27.44824219 C-37.71666697 26.81500193 -40.34555763 25.09194237 -43.4375 22 C-44.13807037 18.9001311 -44.1260275 16.10100173 -43.4375 13 C-41.91563862 11.1141199 -40.32110839 9.88118567 -38.35546875 8.46875 C-36.35620081 6.93774237 -35.11608523 5.39159665 -33.625 3.375 C-24.61378269 -7.43366758 -11.34490922 -4.65432173 0 0 Z M-25.4375 7 C-25.4375 7.66 -25.4375 8.32 -25.4375 9 C-26.0975 9 -26.7575 9 -27.4375 9 C-28.0975 10.98 -28.7575 12.96 -29.4375 15 C-31.0875 15.33 -32.7375 15.66 -34.4375 16 C-34.4375 16.99 -34.4375 17.98 -34.4375 19 C-29.25969834 19.04954105 -24.08203554 19.08578636 -18.90405273 19.10986328 C-17.14361161 19.11990351 -15.38318709 19.13353844 -13.62280273 19.15087891 C-11.08833715 19.17521436 -8.55409261 19.18650296 -6.01953125 19.1953125 C-5.23600784 19.20563507 -4.45248444 19.21595764 -3.6452179 19.22659302 C0.50756991 19.22744031 3.89140222 19.04221777 7.5625 17 C8.44943303 14.95894361 8.44943303 14.95894361 8.5625 13 C5.97350577 10.51888053 4.04168379 9.80507768 0.5625 9.5 C-2.99454035 9.18381864 -4.69063515 8.35445558 -7.4375 6 C-10.45523247 5.02251709 -13.27649757 4.83659301 -16.4375 4.8125 C-17.283125 4.79832031 -18.12875 4.78414062 -19 4.76953125 C-21.59158616 5.01456904 -23.20774992 5.69415099 -25.4375 7 Z " fill="#FFFFFF" transform="translate(210.4375,72)"/>
<path d="M0 0 C1.91022697 1.91444381 3.60057957 3.92244904 5.29296875 6.03125 C7.57898603 8.66775505 10.04851766 10.17289189 13 12 C14.73297665 15.4659533 14.60552145 19.21885492 14 23 C11.25965991 26.04482232 8.95802755 27.2916171 5 28 C2.25715471 28.11869118 -0.45969933 28.18785601 -3.203125 28.203125 C-4.39805573 28.21167511 -4.39805573 28.21167511 -5.61712646 28.22039795 C-7.30154093 28.22982971 -8.9859737 28.23637468 -10.67041016 28.24023438 C-13.22722226 28.24991377 -15.783221 28.28094284 -18.33984375 28.3125 C-19.98176609 28.31903354 -21.62369415 28.32428263 -23.265625 28.328125 C-24.398862 28.3466452 -24.398862 28.3466452 -25.55499268 28.36553955 C-31.93895157 28.33919536 -37.50533838 27.12046237 -42.5 22.875 C-44.60025903 18.84950353 -44.79292623 15.45009619 -44 11 C-41.54174453 6.65077878 -38.60290236 4.80505975 -34 3 C-32.2365625 2.7525 -32.2365625 2.7525 -30.4375 2.5 C-26.83638647 1.97620167 -25.00828721 0.95132144 -22 -1 C-15.25040715 -3.16743391 -6.37953381 -2.94440022 0 0 Z M-20 8 C-20.66 8.66 -21.32 9.32 -22 10 C-24.78026643 10.54822155 -27.5596994 10.89029526 -30.37109375 11.2421875 C-33.5186285 12.14950064 -34.35058878 13.23793511 -36 16 C-34.33668018 18.04885753 -33.33846823 18.91801808 -30.7421875 19.546875 C-18.82484026 20.39115573 -6.91546238 19.61422781 5 19 C5 18.34 5 17.68 5 17 C3.824375 16.9071875 3.824375 16.9071875 2.625 16.8125 C1.75875 16.544375 0.8925 16.27625 0 16 C-1.0625 13.6875 -1.0625 13.6875 -2 11 C-4.28712259 7.95050322 -5.59256397 7.10762461 -9.3125 6.125 C-13.34410561 5.9883354 -16.23114254 6.59591585 -20 8 Z " fill="#FFFFFF" transform="translate(145,60)"/>
<path d="M0 0 C23.35571717 0.42723873 46.63284825 7.84343624 64.82421875 22.609375 C67.63392824 24.87376195 70.56421093 26.95918517 73.50390625 29.05078125 C73.97699219 29.46714844 74.45007813 29.88351563 74.9375 30.3125 C74.9375 30.9725 74.9375 31.6325 74.9375 32.3125 C75.5975 32.3125 76.2575 32.3125 76.9375 32.3125 C78.125 35.0625 78.125 35.0625 78.9375 38.3125 C77.5625 40.6875 77.5625 40.6875 75.9375 42.3125 C69.3125 41.5625 69.3125 41.5625 65.9375 39.3125 C65.9375 38.6525 65.9375 37.9925 65.9375 37.3125 C65.2775 37.3125 64.6175 37.3125 63.9375 37.3125 C63.9375 36.6525 63.9375 35.9925 63.9375 35.3125 C63.40769531 35.06886719 62.87789063 34.82523438 62.33203125 34.57421875 C59.89994558 33.29271194 57.65113917 31.82439612 55.37133789 30.29174805 C39.24697434 19.51887884 22.77801736 13.5255441 3.37011719 11.99487305 C-0.80165987 11.65221021 -4.23604699 11.17194102 -8.0625 9.3125 C-8.1875 5.9375 -8.1875 5.9375 -8.0625 2.3125 C-5.33209898 -0.41790102 -3.82222766 0.01316496 0 0 Z " fill="#FFFFFF" transform="translate(77.0625,110.6875)"/>
</svg>
